<svg xmlns="http://www.w3.org/2000/svg" id="Layer_1" viewBox="0 0 877 635.21">
	<defs>
		<style>
			.cls-1{opacity:.5;}.cls-2,.cls-3{fill:#d2b777;}.cls-4{letter-spacing:-.02em;}.cls-5{letter-spacing:0em;}.cls-6{letter-spacing:-.02em;}.cls-7{letter-spacing:-.04em;}.cls-3{font-family:Fixture-Bold, Fixture;font-size:124.72px;font-weight:700;}
		</style>
	</defs>
	<g class="cls-1">
		<path class="cls-2" d="M212.33,183.8l-46.43-38.64c-.2-.17-.22-.41-.06-.61l13.62-16.37c.06-.07,.23-.14,.42-.1l27.56,8.41c6.51,1.92,14.43,5.25,15.41,5.84l.56-.67c-.81-.79-5.59-8.03-8.6-14.02l-13.34-25.51c-.08-.18-.03-.37,.02-.43l13.62-16.36c.17-.2,.41-.22,.61-.06l46.43,38.64c.2,.17,.22,.41,.05,.61l-10.51,12.64c-.17,.2-.41,.22-.61,.06l-17.43-14.5c-5.26-4.37-8.26-6.99-11.2-10.9l-.55,.67,19.68,36.42c.08,.18,.03,.37-.03,.43l-7.91,9.51c-.11,.13-.29,.21-.48,.17l-39.39-12.74-.55,.67c4.37,2.18,7.49,4.66,12.75,9.03l17.43,14.5c.2,.17,.22,.41,.05,.61l-10.52,12.64c-.17,.2-.41,.22-.61,.06" />
		<path class="cls-2" d="M292.01,68.94l-.47-.73c-6.33-9.73-14.16-11.76-23.02-6-8.28,5.39-10.17,13.75-3.84,23.48l.47,.73c6.33,9.73,14.69,11.31,22.97,5.93,8.86-5.76,10.22-13.67,3.89-23.4m-40.96,27.58l-1.32-2.03c-11.62-17.86-4.65-33.04,11.47-43.52,16.7-10.86,32.82-10.71,44.43,7.15l1.32,2.03c11.62,17.86,5.23,32.66-11.47,43.52-16.12,10.49-32.82,10.71-44.44-7.15" />
		<path class="cls-2" d="M320.46,63.59l-.61-1.9c-.08-.25,.03-.47,.28-.54l15.66-5.03c.25-.08,.47,.03,.55,.28l.58,1.81c1.67,5.19,5.34,7.29,15.4,4.06,9.4-3.02,12.51-4.93,10.95-9.79l-.26-.82c-1.4-4.37-8.57-2.89-17.16-1.31-13.64,2.56-27.77,5.28-31.72-7l-.74-2.31c-3.92-12.2,4.99-20.16,23.29-26.04,18.96-6.09,31.22-4.48,36.01,10.44l.53,1.65c.08,.25-.03,.47-.28,.54l-15.58,5.01c-.24,.08-.46-.03-.54-.28l-.5-1.57c-1.56-4.86-5.38-6.82-15.52-3.57-8.82,2.83-11.76,5.87-10.75,9l.24,.74c1.17,3.63,7.92,2.28,17.06,.71,13.38-2.21,27.79-4.93,31.58,6.86l1.14,3.55c4.35,13.52-5.34,20.73-23.73,26.64-18.96,6.09-30.8,4.62-35.86-11.13" />
		<path class="cls-2" d="M388.97,42.98l-.1-1.99c-.01-.26,.15-.44,.41-.46l16.43-.87c.26-.01,.44,.15,.46,.41l.1,1.9c.29,5.45,3.31,8.41,13.85,7.85,9.86-.52,13.36-1.57,13.09-6.67l-.05-.86c-.24-4.58-7.55-4.98-16.25-5.65-13.84-1.01-28.2-1.98-28.88-14.87l-.13-2.42c-.67-12.8,9.97-18.22,29.16-19.23,19.89-1.05,31.32,3.64,32.15,19.29l.09,1.73c.01,.26-.15,.44-.41,.46l-16.34,.86c-.26,.01-.45-.15-.46-.41l-.08-1.64c-.27-5.1-3.46-7.97-14.09-7.41-9.26,.49-12.87,2.67-12.7,5.96l.04,.78c.2,3.81,7.07,4.22,16.31,5.04,13.51,1.28,28.13,2.33,28.79,14.7l.2,3.72c.74,14.18-10.46,18.67-29.75,19.69-19.89,1.05-30.96-3.4-31.83-19.92" />
		<path class="cls-2" d="M482.8,43.45l.56-1.91c.07-.25,.29-.37,.54-.29l15.79,4.62c.25,.07,.36,.29,.29,.54l-.53,1.83c-1.54,5.24,.33,9.03,10.47,12,9.47,2.77,13.12,2.94,14.56-1.97l.24-.83c1.29-4.4-5.48-7.19-13.47-10.7-12.73-5.53-25.95-11.2-22.33-23.58l.68-2.33c3.6-12.3,15.43-13.89,33.88-8.49,19.12,5.59,28.35,13.8,23.95,28.84l-.49,1.66c-.07,.25-.29,.37-.54,.29l-15.71-4.59c-.25-.07-.37-.29-.29-.54l.46-1.58c1.43-4.9-.63-8.66-10.84-11.65-8.9-2.6-13.03-1.74-13.95,1.42l-.22,.75c-1.07,3.66,5.28,6.32,13.72,10.15,12.32,5.68,25.77,11.51,22.3,23.39l-1.05,3.57c-3.99,13.63-16.05,14.16-34.58,8.74-19.12-5.59-28.1-13.45-23.45-29.32" />
		<path class="cls-2" d="M543.5,85.42l27.57-53.81c.12-.23,.35-.31,.58-.19l14.65,7.51c.23,.12,.31,.35,.19,.58l-27.58,53.81c-.12,.23-.35,.31-.58,.19l-14.65-7.51c-.23-.12-.3-.35-.19-.58" />
		<path class="cls-2" d="M624.21,101.07c6.91-8.78,5.72-16.22-2.52-22.7l-9.86-7.77-21.33,27.08,9.87,7.77c8.23,6.48,15.75,5.9,22.66-2.88l1.18-1.5Zm14.09,10.1l-2.14,2.72c-13.18,16.74-28.44,14.42-44.09,2.1l-23.14-18.22c-.2-.16-.23-.4-.07-.61l37.4-47.49c.16-.2,.4-.23,.61-.07l23.13,18.22c15.65,12.32,21.48,26.61,8.3,43.35" />
		<path class="cls-2" d="M670.87,126.68l-8.29,6.41,19.02,24.59c.15,.2,.13,.45-.08,.61l-9.59,7.42c-.21,.16-.45,.13-.61-.08l-19.02-24.59-8.7,6.73,20.08,25.96c.16,.2,.13,.45-.08,.61l-9.94,7.68c-.21,.16-.45,.13-.61-.08l-30.41-39.32c-.16-.21-.13-.45,.08-.61l47.82-36.98c.2-.16,.45-.13,.6,.08l30.41,39.32c.16,.21,.13,.45-.08,.61l-9.86,7.63c-.21,.16-.47,.25-.68-.02l-20.08-25.96Z" />
		<path class="cls-2" d="M163.06,485.95l47.08-37.9c.2-.17,.45-.14,.61,.06l13.36,16.59c.05,.07,.09,.25,.01,.43l-13.7,25.37c-3.17,6-8,13.11-8.77,13.96l.54,.67c.94-.64,8.98-3.89,15.45-5.66l27.66-8.04c.19-.04,.36,.04,.42,.11l13.36,16.59c.16,.2,.14,.45-.07,.61l-47.08,37.9c-.2,.17-.45,.14-.61-.06l-10.32-12.81c-.16-.2-.14-.45,.06-.61l17.67-14.23c5.33-4.29,8.49-6.72,12.9-8.83l-.54-.67-39.61,12.1c-.19,.04-.37-.04-.42-.11l-7.76-9.64c-.11-.14-.15-.33-.07-.5l20.28-36.12-.54-.67c-3.01,3.86-6.05,6.43-11.38,10.72l-17.67,14.23c-.2,.16-.44,.14-.61-.06l-10.32-12.82c-.16-.2-.14-.45,.07-.61" />
		<path class="cls-2" d="M276.38,564.33l4.49-16.34c1.01-3.62,2.42-7.36,3.09-8.8l-1.36-.93c-1.17,1.09-4.15,3.76-7.02,6.1l-13.63,10.08,14.42,9.88Zm7.52,34.97l-14.14-9.69c-.21-.14-.26-.38-.18-.65l3.27-11.82-21.57-14.78-9.84,7.32c-.22,.16-.46,.21-.6,.11l-14.14-9.69c-.21-.15-.33-.44-.11-.6l52.38-37.36c.22-.16,.46-.21,.6-.11l20.71,14.19c.22,.15,.26,.39,.19,.65l-16.03,62.28c-.08,.26-.32,.3-.53,.16" />
		<path class="cls-2" d="M355.23,582.34c1.65-4.65-.44-7.32-5.41-9.08l-16.4-5.82-4.66,13.14,16.81,5.96c4.57,1.62,7.84,.94,9.46-3.63l.21-.57Zm3.16,45.21l-15.91-5.64c-.17-.06-.38-.22-.38-.5-.11-1.23,.78-3.49,1.1-4.38l2.57-7.26c2.29-6.44-.72-9.62-7.16-11.91l-14.19-5.04-7.01,19.74c-.08,.25-.31,.35-.55,.26l-15.5-5.5c-.25-.08-.35-.31-.26-.55l20.2-56.94c.08-.25,.31-.35,.55-.26l35,12.41c14.52,5.15,19.91,11.47,16.06,22.32l-.58,1.63c-3.21,9.06-9.76,12.24-16.08,10.65l-.23,.65c6.05,2.88,9.69,8.67,7.17,15.77l-2.34,6.61c-.96,2.69-1.63,5.12-1.84,7.52-.03,.35-.28,.54-.61,.43" />
		<path class="cls-2" d="M379.96,610.91l.16-1.98c.02-.26,.21-.42,.46-.4l16.4,1.3c.26,.02,.42,.21,.4,.47l-.15,1.9c-.43,5.44,2.17,8.77,12.71,9.61,9.84,.78,13.45,.2,13.85-4.9l.07-.86c.36-4.57-6.83-5.93-15.37-7.74-13.59-2.82-27.7-5.68-26.68-18.55l.19-2.42c1.02-12.78,12.28-16.75,31.45-15.22,19.86,1.58,30.58,7.73,29.33,23.36l-.14,1.73c-.02,.26-.21,.42-.46,.4l-16.32-1.3c-.26-.02-.42-.21-.4-.47l.13-1.64c.41-5.09-2.38-8.35-13-9.2-9.24-.74-13.11,.96-13.37,4.24l-.06,.78c-.3,3.8,6.46,5.12,15.5,7.14,13.23,3.05,27.59,6.02,26.61,18.37l-.3,3.71c-1.13,14.16-12.83,17.14-32.09,15.61-19.86-1.58-30.25-7.45-28.94-23.94" />
		<path class="cls-2" d="M471.03,584.83l1.66,10.34,30.69-4.93c.26-.04,.46,.1,.5,.36l1.92,11.97c.04,.25-.1,.45-.36,.49l-30.69,4.93,1.75,10.86,32.4-5.21c.25-.04,.45,.1,.5,.36l1.99,12.39c.04,.26-.1,.46-.36,.5l-49.06,7.88c-.26,.04-.46-.1-.5-.36l-9.59-59.66c-.04-.26,.1-.46,.36-.5l49.06-7.88c.26-.04,.46,.1,.5,.36l1.98,12.31c.04,.26,0,.53-.35,.58l-32.4,5.21Z" />
		<path class="cls-2" d="M530.45,619.97l-19.87-57.08c-.09-.25,.02-.46,.27-.55l15.54-5.41c.24-.08,.46,.02,.55,.27l19.88,57.08c.08,.24-.02,.47-.27,.55l-15.54,5.41c-.25,.08-.47-.02-.55-.27" />
		<path class="cls-2" d="M605.17,571.73l5.69,10.41c.21,.38,.22,.77,0,.89l-43.61,23.85c-.23,.13-.46,.06-.59-.17l-29-53.03c-.12-.22-.06-.46,.17-.59l14.43-7.89c.23-.12,.46-.06,.59,.17l22.77,41.63,28.79-15.75c.23-.13,.54,.1,.75,.47" />
		<path class="cls-2" d="M655.11,529.75l7.77,8.97c.28,.33,.38,.7,.18,.87l-37.58,32.53c-.19,.17-.44,.15-.61-.04l-39.57-45.69c-.17-.2-.15-.44,.04-.61l12.44-10.77c.2-.17,.44-.15,.61,.05l31.06,35.87,24.81-21.48c.2-.17,.55-.02,.83,.3" />
		<path class="cls-2" d="M646.9,483.66l8.4,6.25,18.55-24.95c.15-.21,.4-.25,.6-.09l9.73,7.23c.21,.16,.24,.4,.09,.6l-18.55,24.95,8.83,6.56,19.58-26.34c.15-.21,.39-.24,.61-.09l10.07,7.49c.21,.16,.25,.4,.09,.6l-29.65,39.89c-.15,.21-.4,.25-.6,.09l-48.51-36.06c-.21-.16-.25-.4-.09-.6l29.65-39.89c.15-.21,.4-.24,.6-.09l10.01,7.44c.21,.16,.36,.38,.16,.66l-19.57,26.34Z" />
	</g>
	<text class="cls-3" transform="translate(23.42 358.53)">
		<tspan class="cls-5" x="0" y="0">
			R
		</tspan>
		<tspan class="cls-6" x="79.45" y="0">
			O
		</tspan>
		<tspan class="cls-7" x="159.77" y="0">
			TA
		</tspan>
		<tspan x="297.22" y="0">
			TE IM
		</tspan>
		<tspan class="cls-4" x="603.16" y="0">
			A
		</tspan>
		<tspan x="678.62" y="0">
			GE
		</tspan>
	</text>
</svg>
