<?xml version="1.0" encoding="UTF-8"?>
<svg id="Layer_1" data-name="Layer 1" xmlns="http://www.w3.org/2000/svg" viewBox="0 0 816.31299 635.20841">
  <g opacity=".5">
    <path d="m180.17855,183.80005l-46.43456-38.64067c-.19804-.16658-.22034-.40986-.05507-.60854l13.61907-16.36612c.05507-.06556.23082-.14361.42162-.09902l27.56147,8.4136c6.50785,1.92337,14.4309,5.25266,15.40536,5.84023l.55611-.66554c-.80987-.78633-5.58983-8.02864-8.59716-14.02177l-13.33774-25.51082c-.07741-.17771-.03346-.36591.02033-.43147l13.61839-16.36348c.16787-.20069.40986-.2223.61383-.05708l46.4306,38.64003c.19804.16723.2223.4105.05371.60854l-10.5146,12.63938c-.16987.20069-.41114.2223-.61319.05772l-17.42646-14.50375c-5.25666-4.37395-8.26143-6.98655-11.20055-10.89756l-.55347.66562,19.68428,36.42087c.07741.17771.02954.36591-.02554.43155l-7.91385,9.51189c-.11023.13384-.28794.21189-.47806.16723l-39.38698-12.73832-.55219.66562c4.37403,2.17977,7.49022,4.65925,12.7456,9.03327l17.43303,14.50367c.19804.16658.21902.40986.05379.60854l-10.51793,12.63938c-.16658.20069-.40986.22166-.60986.057" fill="#d2b777"/>
    <path d="m259.85732,68.93615l-.47414-.72534c-6.3295-9.72835-14.15873-11.76387-23.01566-6.00161-8.27912,5.3865-10.17231,13.74896-3.84409,23.4773l.47022.72526c6.32749,9.72843,14.69451,11.31142,22.97235,5.92756,8.85684-5.7629,10.21954-13.67483,3.89132-23.40318m-40.9562,27.5758l-1.32339-2.03352c-11.62162-17.85794-4.65004-33.03643,11.46616-43.52157,16.69529-10.86354,32.81549-10.7068,44.43383,7.15377l1.32395,2.0316c11.61834,17.85994,5.22984,32.66003-11.46552,43.52293-16.11756,10.48515-32.81541,10.70744-44.43503-7.15321" fill="#d2b777"/>
    <path d="m288.30918,63.59175l-.60862-1.89583c-.08061-.24784.02954-.46557.27938-.54362l15.66312-5.033c.24591-.08069.46629.03146.5469.27866l.57908,1.81386c1.66889,5.19374,5.3432,7.2889,15.40143,4.05663,9.39854-3.02046,12.51474-4.92942,10.94944-9.79391l-.26104-.82372c-1.404-4.37002-8.57026-2.88797-17.1563-1.31082-13.63937,2.56401-27.7732,5.28484-31.71704-6.99912l-.74495-2.30833c-3.91958-12.2019,4.98585-20.15642,23.28582-26.03539,18.96231-6.09415,31.21601-4.48153,36.0091,10.44056l.52985,1.6492c.07933.24728-.03474.46501-.28066.54298l-15.58315,5.00819c-.24463.07805-.46365-.03154-.5417-.27938l-.50232-1.56666c-1.56402-4.86385-5.37794-6.82333-15.51687-3.56608-8.82338,2.8349-11.75666,5.87113-10.75139,9.00309l.23743.74231c1.16665,3.62708,7.91777,2.27687,17.05527.70564,13.38433-2.20867,27.79426-4.92942,31.582,6.86007l1.13711,3.54511c4.34713,13.52065-5.34456,20.72694-23.7317,26.63545-18.96103,6.09215-30.80231,4.62122-35.8602-11.12587" fill="#d2b777"/>
    <path d="m356.81685,42.98329l-.10495-1.98693c-.01313-.26032.14689-.44204.40986-.45709l16.43032-.8663c.25712-.01241.43876.15282.45581.40986l.09702,1.90304c.28722,5.4475,3.30704,8.41096,13.85454,7.85485,9.85947-.52001,13.35999-1.57251,13.08854-6.67379l-.04595-.8643c-.24063-4.5832-7.54658-4.97793-16.25069-5.64619-13.84333-1.00663-28.20075-1.98309-28.8795-14.86702l-.12856-2.4204c-.67218-12.80004,9.96514-18.21608,29.16416-19.2292,19.88825-1.04794,31.31967,3.64085,32.14787,19.29212l.08854,1.72925c.01313.2584-.14689.44204-.4085.45517l-16.3405.86166c-.26369.01241-.44596-.15017-.45845-.40986l-.08325-1.64207c-.27017-5.10321-3.45921-7.96957-14.09125-7.40953-9.25557.48791-12.8708,2.6716-12.69573,5.95894l.04131.77777c.20197,3.80543,7.07252,4.22385,16.30576,5.03764,13.50888,1.28072,28.13391,2.3313,28.78512,14.69779l.19804,3.7189c.74303,14.17979-10.46417,18.67445-29.74644,19.69085-19.88961,1.04666-30.96233-3.39885-31.83311-19.91515" fill="#d2b777"/>
    <path d="m450.65114,43.44822l.55739-1.91288c.07277-.2492.28786-.36591.53642-.29378l15.79232,4.61866c.24848.07405.36263.28786.2905.53706l-.53249,1.82891c-1.53584,5.23569.33309,9.03063,10.47202,11.99609,9.47395,2.77126,13.12392,2.93648,14.5601-1.96603l.24199-.83284c1.28857-4.40285-5.47576-7.1938-13.4663-10.7048-12.72984-5.52747-25.95414-11.20192-22.33099-23.58289l.68131-2.3273c3.59626-12.29836,15.42577-13.89056,33.87584-8.49421,19.11513,5.59175,28.35365,13.79811,23.95272,28.84019l-.48719,1.66168c-.07148.24992-.28658.36599-.53778.29378l-15.70634-4.59497c-.24856-.07213-.36663-.28786-.2905-.53706l.46101-1.57979c1.43154-4.90188-.62631-8.66072-10.84449-11.65172-8.89687-2.60211-13.02762-1.73517-13.9522,1.42297l-.21646.74831c-1.06827,3.65718,5.27836,6.32485,13.72142,10.14869,12.3239,5.67829,25.77115,11.50811,22.29752,23.39269l-1.0453,3.57264c-3.98706,13.62824-16.052,14.15873-34.58276,8.73885-19.11641-5.59111-28.09589-13.45061-23.44777-29.32226" fill="#d2b777"/>
    <path d="m511.34462,85.42434l27.57452-53.81196c.11871-.23014.35086-.30627.58301-.1882l14.64536,7.50663c.23215.11871.30883.35086.19148.58365l-27.57588,53.80932c-.11671.23086-.35478.30691-.58165.1882l-14.65-7.50591c-.22886-.11871-.30491-.35086-.18684-.58173" fill="#d2b777"/>
    <path d="m592.05467,101.06993c6.91378-8.77751,5.72095-16.22251-2.51558-22.70354l-9.86347-7.76888-21.32563,27.08141,9.8674,7.76632c8.23317,6.48359,15.74901,5.89802,22.66151-2.87885l1.17578-1.49646Zm14.09125,10.1021l-2.14439,2.72083c-13.1778,16.73795-28.44018,14.42306-44.08753,2.10108l-23.13501-18.21536c-.20261-.16066-.23086-.40393-.07213-.60918l37.39605-47.49367c.16002-.20261.40201-.23215.6079-.07148l23.13165,18.21544c15.65135,12.32254,21.48181,26.61448,8.30346,43.35235" fill="#d2b777"/>
    <path d="m638.71678,126.68193l-8.28704,6.41155,19.02267,24.59337c.15474.20461.12656.44788-.08197.60662l-9.58802,7.4181c-.20725.15802-.44724.12656-.60862-.07869l-19.02131-24.59345-8.69618,6.72887,20.07781,25.96335c.15602.20461.12656.44788-.07677.60654l-9.9356,7.68178c-.20589.16066-.44788.12912-.6079-.07613l-30.41014-39.3207c-.15802-.20725-.1272-.45052.07941-.60926l47.81755-36.97826c.20197-.16066.44788-.1292.60262.07541l30.41214,39.32334c.15994.20525.12656.44852-.07613.60726l-9.86347,7.62855c-.20589.15874-.46621.24992-.67602-.0249l-20.08301-25.96335Z" fill="#d2b777"/>
    <path d="m130.90729,485.94869l47.07589-37.90228c.20393-.16522.44592-.13969.60986.063l13.36003,16.59426c.04979.0682.0931.25384.01241.43155l-13.70165,25.37113c-3.17131,5.99969-8.00371,13.1148-8.77355,13.95613l.54034.67218c.93515-.63808,8.98472-3.89397,15.45327-5.65667l27.65849-8.03721c.19084-.04195.36391.0381.41898.10559l13.36007,16.58978c.16002.20325.13577.44852-.06756.60918l-47.07653,37.90228c-.20329.16526-.44524.14033-.60918-.06296l-10.31728-12.81445c-.16262-.20329-.13969-.44852.06428-.60918l17.67238-14.22633c5.32679-4.29134,8.48701-6.7223,12.89906-8.83195l-.5417-.67282-39.60992,12.10496c-.18952.03738-.36787-.04267-.42299-.11023l-7.76171-9.64374c-.11015-.13512-.15214-.32524-.07148-.49903l20.28042-36.1186-.54234-.67218c-3.00605,3.86443-6.05408,6.42652-11.38091,10.71793l-17.67238,14.22694c-.19872.16466-.442.13905-.60726-.06356l-10.31596-12.81509c-.1613-.20269-.13705-.44788.06692-.60862" fill="#d2b777"/>
    <path d="m244.22494,564.32884l4.48682-16.3405c1.00655-3.61527,2.42176-7.36499,3.09066-8.79853l-1.35749-.92986c-1.16729,1.09052-4.15493,3.7628-7.01873,6.10459l-13.6256,10.07985,14.42434,9.88445Zm7.5224,34.96836l-14.1424-9.69425c-.21053-.14361-.25776-.38496-.18235-.65117l3.27366-11.82094-21.56707-14.78044-9.84306,7.3184c-.2191.16458-.45973.20721-.59942.10951l-14.1424-9.69033c-.21045-.14757-.32917-.4394-.11015-.60462l52.37585-37.3613c.2203-.16458.45973-.21117.60334-.10951l20.70797,14.19287c.2151.14753.25704.38888.18556.65053l-16.03039,62.2806c-.07733.26232-.31804.30431-.52913.16066" fill="#d2b777"/>
    <path d="m323.08062,582.33515c1.64663-4.65072-.43539-7.31844-5.41276-9.08178l-16.3995-5.81737-4.65997,13.13577,16.80551,5.96162c4.57007,1.6191,7.84365.94299,9.46146-3.62772l.20525-.57052Zm3.16087,45.20823l-15.90903-5.64422c-.1653-.05507-.38168-.22426-.37648-.49903-.11015-1.23418.78233-3.48803,1.09909-4.38383l2.57458-7.26396c2.28864-6.44297-.71869-9.62216-7.16498-11.90948l-14.19283-5.03568-7.00696,19.74396c-.08325.24527-.30883.3515-.54955.26232l-15.50174-5.49601c-.24728-.08461-.35214-.30887-.26369-.55415l20.19716-56.9446c.08389-.24523.30819-.35082.55283-.26228l34.9979,12.41308c14.52464,5.14979,19.9053,11.4662,16.05913,22.31922l-.579,1.63154c-3.21458,9.05621-9.76381,12.24393-16.0841,10.64581l-.23215.65117c6.04948,2.87885,9.68905,8.67129,7.17475,15.76934l-2.34371,6.60823c-.95548,2.69325-1.6315,5.11569-1.8414,7.52172-.03474.35474-.28458.54098-.60982.42687" fill="#d2b777"/>
    <path d="m347.8128,610.90669l.1613-1.98305c.01897-.26164.20525-.41838.46357-.39737l16.40486,1.30234c.25704.02097.41706.20725.39673.46953l-.15218,1.89779c-.43019,5.44162,2.16928,8.77295,12.70558,9.61496,9.84186.78165,13.45189.19868,13.85454-4.89668l.07148-.86234c.36263-4.57463-6.82925-5.93145-15.37197-7.73678-13.5935-2.81981-27.70116-5.68225-26.67812-18.54721l.19348-2.41848c1.01576-12.77638,12.28187-16.74644,31.44751-15.22048,19.85871,1.58107,30.57929,7.7329,29.3333,23.35927l-.13577,1.72861c-.02225.25836-.20653.41902-.46493.39741l-16.32017-1.29778c-.25768-.02097-.4177-.20721-.39609-.46953l.12984-1.64007c.40722-5.09012-2.37589-8.35457-12.99544-9.19986-9.23852-.7351-13.11015.95548-13.3692,4.2363l-.06364.77773c-.30491,3.79694,6.45541,5.1203,15.50246,7.14137,13.22695,3.05196,27.58901,6.01998,26.60663,18.36557l-.29571,3.71165c-1.12863,14.15941-12.83022,17.13992-32.08567,15.6054-19.85743-1.57715-30.25396-7.44564-28.94242-23.93831" fill="#d2b777"/>
    <path d="m438.87543,584.83368l1.66104,10.34154,30.6908-4.93402c.25896-.03802.45701.10162.49575.35935l1.92209,11.96916c.04387.2538-.1023.45248-.35806.49447l-30.68687,4.93402,1.74566,10.85694,32.39779-5.20879c.25376-.04195.45244.10166.49575.35939l1.99029,12.3921c.04259.25772-.10102.45641-.35871.49839l-49.0649,7.88499c-.25768.04263-.45573-.10162-.49703-.35935l-9.59066-59.66343c-.04067-.25772.1023-.45645.35999-.49839l49.06353-7.88499c.25904-.04263.45773.10162.50103.35935l1.9778,12.30689c.03674.25836-.00528.52853-.34758.58361l-32.39771,5.20879Z" fill="#d2b777"/>
    <path d="m498.29323,619.9671l-19.87056-57.08425c-.08918-.24527.02161-.46497.26625-.54955l15.53784-5.41208c.24463-.08461.46493.02161.54955.26689l19.87512,57.08429c.08325.24459-.02033.46885-.26753.55347l-15.53592,5.40748c-.24591.08461-.46885-.02097-.55475-.26625" fill="#d2b777"/>
    <path d="m573.02048,571.73169l5.69077,10.4091c.21245.38032.22422.76528-.00392.89184l-43.60627,23.8491c-.22822.12724-.45965.05904-.58693-.16919l-29.00342-53.02963c-.12328-.2243-.05507-.46101.17379-.58757l14.43355-7.89356c.22814-.1226.45965-.05507.58685.17379l22.77238,41.63103,28.7916-15.74837c.22758-.1272.54434.09706.75159.47346" fill="#d2b777"/>
    <path d="m622.95904,529.74916l7.76696,8.97163c.28258.32524.3816.70168.18291.87087l-37.57768,32.53283c-.19348.17379-.44068.15282-.6079-.04195l-39.56533-45.69422c-.16923-.19868-.15282-.44.04331-.61315l12.43669-10.7684c.19997-.16915.4446-.1521.61311.04659l31.05871,35.87329,24.81438-21.48177c.19804-.16919.55155-.02097.83484.30427" fill="#d2b777"/>
    <path d="m614.74652,483.6615l8.40304,6.25281,18.54917-24.94815c.15474-.21181.39673-.24527.60326-.0931l9.73363,7.23374c.20661.15674.23999.39745.08854.60462l-18.54853,24.94823,8.82866,6.56164,19.57806-26.3391c.15418-.20717.39353-.24127.60598-.08854l10.07329,7.49159c.21181.1561.24591.39737.08854.60462l-29.64942,39.88925c-.15474.21181-.39673.24591-.60462.09314l-48.50871-36.05889c-.20925-.15674-.24591-.39745-.08854-.60462l29.65334-39.89394c.15081-.20717.39801-.24127.60462-.08918l10.00636,7.44107c.20789.15674.36399.38096.1581.65513l-19.57477,26.33966Z" fill="#d2b777"/>
  </g>
  <g>
    <path d="m65.35596,358.52907h-20.70459c-.33301,0-.58252-.12451-.74805-.37402-.49902-.99805-.74854-2.90967-.74854-5.7373v-19.83154c0-3.0752-.72852-5.23828-2.18262-6.48535-1.45557-1.24756-3.8042-1.87109-7.04688-1.87109h-12.72168v33.67578c0,.41699-.20898.62354-.62402.62354H.62402c-.41699,0-.62402-.20654-.62402-.62354v-87.05762c0-.41504.20703-.62354.62402-.62354h36.54395c9.146,0,15.90234,1.58008,20.26807,4.73926,4.36523,3.16113,6.54785,8.23193,6.54785,15.21631v7.85791c0,4.90723-1.12256,8.89795-3.36768,11.97363-2.24512,3.07715-5.23828,4.86426-8.97998,5.36279v.87305c3.82373.41699,6.94141,1.87109,9.354,4.36572,2.41113,2.49414,3.61719,5.7373,3.61719,9.72852v16.21387c0,2.57861.08203,4.67725.24951,6.29883.16553,1.62109.49902,3.26416.99756,4.92627.16602.49902,0,.74854-.49854.74854Zm-22.32568-64.98145c0-2.49463-.62354-4.26025-1.87109-5.30078-1.24707-1.03857-3.20166-1.55908-5.86182-1.55908h-14.09375v21.57715h14.46777c2.49463,0,4.34375-.51807,5.55029-1.55859,1.20459-1.03906,1.80859-2.80664,1.80859-5.30127v-7.85742Z" fill="#d2b777"/>
    <path d="m86.74512,352.16823c-6.19482-5.0708-9.2915-12.7627-9.2915-23.07422v-29.43506c0-10.22705,3.09668-17.87646,9.2915-22.94922,6.19336-5.0708,14.57178-7.60791,25.13232-7.60791,11.05762,0,19.62256,2.51562,25.69287,7.5459,6.06885,5.03174,9.10498,12.70215,9.10498,23.01123v29.43506c0,10.39502-3.03613,18.10645-9.10498,23.13672-6.07031,5.03174-14.63525,7.54541-25.69287,7.54541-10.56055,0-18.93896-2.53516-25.13232-7.60791Zm38.72705-23.82227v-27.93848c0-9.72852-4.48975-14.59277-13.47021-14.59277-4.32422,0-7.62939,1.22803-9.91553,3.6792-2.28809,2.45361-3.42969,6.09229-3.42969,10.91357v27.93848c0,4.82324,1.1416,8.46143,3.42969,10.91309,2.28613,2.45361,5.59131,3.67969,9.91553,3.67969,8.98047,0,13.47021-4.86426,13.47021-14.59277Z" fill="#d2b777"/>
    <path d="m219.76318,271.34694v14.59229c0,.3335-.08398.58301-.24951.74854-.16748.16748-.33301.24951-.49902.24951h-22.4502v70.96826c0,.41699-.2085.62354-.62354.62354h-19.95605c-.41699,0-.62354-.20654-.62354-.62354v-70.96826h-22.5752c-.41699,0-.62354-.33154-.62354-.99805v-14.59229c0-.74854.20654-1.12256.62354-1.12256h66.22852c.33154,0,.58105.37402.74854,1.12256Z" fill="#d2b777"/>
    <path d="m292.104,358.34206c-.16748.12451-.33301.18701-.49902.18701h-20.45459c-.24951,0-.45801-.20654-.62354-.62354l-4.36523-16.58838h-23.07422l-4.36523,16.58838c-.16797.41699-.37451.62354-.62354.62354h-20.45508c-.16748,0-.33301-.0625-.49902-.18701-.16748-.125-.2085-.26904-.12451-.43652l22.07617-87.05762c.16553-.41504.37402-.62354.62354-.62354h29.80908c.33154,0,.58105.2085.74854.62354l21.95166,87.05762c.08154.16748.04053.31152-.125.43652Zm-30.05859-33.11426l-3.6167-13.84473c-.6665-3.32471-1.29053-7.52441-1.87109-12.59717-.58252-5.0708-.95703-8.97998-1.12256-11.72412h-1.62158c-.16748,2.57861-.5415,6.42334-1.12207,11.53711-.58301,5.11377-1.16553,9.33496-1.74658,12.65967l-3.6167,13.96924h14.71729Z" fill="#d2b777"/>
    <path d="m357.20996,271.34694v14.59229c0,.3335-.08398.58301-.24951.74854-.16748.16748-.33301.24951-.49902.24951h-22.4502v70.96826c0,.41699-.2085.62354-.62354.62354h-19.95605c-.41699,0-.62354-.20654-.62354-.62354v-70.96826h-22.5752c-.41699,0-.62354-.33154-.62354-.99805v-14.59229c0-.74854.20654-1.12256.62354-1.12256h66.22852c.33154,0,.58105.37402.74854,1.12256Z" fill="#d2b777"/>
    <path d="m388.14062,286.93727v18.58398h29.93408c.41406,0,.62305.2085.62305.62354v15.0918c0,.41699-.20898.62354-.62305.62354h-29.93408v19.95605h32.42822c.41504,0,.62305.2085.62305.62354v15.46582c0,.41699-.20801.62354-.62305.62354h-53.00781c-.41699,0-.62402-.20654-.62402-.62354v-87.05762c0-.41504.20703-.62354.62402-.62354h53.00781c.41504,0,.62305.2085.62305.62354v15.34082c0,.49902-.20801.74854-.62305.74854h-32.42822Z" fill="#d2b777"/>
    <path d="m463.09717,357.90553v-87.05762c0-.41504.20703-.62354.62402-.62354h19.95508c.41602,0,.625.2085.625.62354v87.05762c0,.41699-.20898.62354-.625.62354h-19.95508c-.41699,0-.62402-.20654-.62402-.62354Z" fill="#d2b777"/>
    <path d="m501.76123,357.90553v-87.05762c0-.41504.20703-.62354.62402-.62354h24.57031c.33105,0,.49902.16748.49902.49854l10.85156,35.17236c1.3291,4.4082,2.45117,9.12646,3.36719,14.15625.91406,5.03174,1.4541,9.12646,1.62109,12.28564h1.12305c.08203-3.07568.56055-7.15039,1.43359-12.22314.87402-5.0708,1.97461-9.85352,3.30566-14.34326l10.72656-35.04785c.16504-.33105.37402-.49854.62305-.49854h24.57129c.41504,0,.62305.2085.62305.62354v87.05762c0,.41699-.20801.62354-.62305.62354h-19.20801c-.41699,0-.62305-.20654-.62305-.62354v-21.57764c0-13.96875.70508-25.31885,2.12012-34.04932h-1.12305l-14.9668,55.75146c0,.3335-.20801.49902-.62305.49902h-13.84473c-.41699,0-.62402-.16553-.62402-.49902l-14.9668-55.75146h-1.12207c1.41309,8.73047,2.12012,20.08057,2.12012,34.04932v21.57764c0,.41699-.20898.62354-.62402.62354h-19.20703c-.41699,0-.62402-.20654-.62402-.62354Z" fill="#d2b777"/>
    <path d="m670.63818,358.34206c-.16797.12451-.33398.18701-.49902.18701h-20.45508c-.24902,0-.45801-.20654-.62402-.62354l-4.36523-16.58838h-23.07422l-4.36523,16.58838c-.16699.41699-.37402.62354-.62305.62354h-20.45508c-.16797,0-.33301-.0625-.49902-.18701-.16699-.125-.20801-.26904-.125-.43652l22.07715-87.05762c.16504-.41504.37402-.62354.62305-.62354h29.80957c.33105,0,.58008.2085.74805.62354l21.95117,87.05762c.08203.16748.04102.31152-.12402.43652Zm-30.05859-33.11426l-3.61719-13.84473c-.66699-3.32471-1.29004-7.52441-1.87109-12.59717-.58301-5.0708-.95703-8.97998-1.12207-11.72412h-1.62207c-.16699,2.57861-.54199,6.42334-1.12207,11.53711-.58301,5.11377-1.16602,9.33496-1.74609,12.65967l-3.61719,13.96924h14.71777Z" fill="#d2b777"/>
    <path d="m724.26807,302.02907v-7.85791c0-2.57617-.99805-4.61475-2.99316-6.11133-1.99609-1.49658-5.11426-2.24512-9.35449-2.24512-4.73926,0-8.27441,1.16553-10.60156,3.49219-2.3291,2.3291-3.49219,5.9458-3.49219,10.85107v28.18799c0,9.64648,4.78027,14.46777,14.34277,14.46777,4.15723,0,7.29688-.85156,9.41699-2.55664,2.12012-1.70361,3.18066-4.09473,3.18066-7.17188v-9.85303h-11.34961c-.41797,0-.62402-.29053-.62402-.87305v-13.71973c0-.24951.0625-.47754.18652-.68604.125-.20654.26953-.31201.4375-.31201h31.55469c.41504,0,.62402.29248.62402.87305v49.39111c0,.41699-.20898.62354-.62402.62354h-15.83984c-.41699,0-.62402-.20654-.62402-.62354l-2.36914-8.48145h-1.24707c-1.99609,3.07715-4.5332,5.57178-7.6084,7.4834-3.07715,1.91211-7.19336,2.86865-12.34766,2.86865-8.64941,0-15.52832-2.45166-20.64258-7.3584-5.11328-4.90527-7.66992-12.59717-7.66992-23.07422v-29.43506c0-10.47656,3.0752-18.229,9.22949-23.26074,6.15234-5.03027,14.63379-7.5459,25.44336-7.5459,10.80859,0,19.22754,2.01709,25.25684,6.04883,6.02832,4.03418,9.04297,9.99951,9.04297,17.89795v8.98047c0,.41699-.20898.62354-.62402.62354h-20.08008c-.41797,0-.62402-.20654-.62402-.62354Z" fill="#d2b777"/>
    <path d="m783.26123,286.93727v18.58398h29.93457c.41504,0,.62305.2085.62305.62354v15.0918c0,.41699-.20801.62354-.62305.62354h-29.93457v19.95605h32.42871c.41504,0,.62305.2085.62305.62354v15.46582c0,.41699-.20801.62354-.62305.62354h-53.00781c-.41699,0-.62402-.20654-.62402-.62354v-87.05762c0-.41504.20703-.62354.62402-.62354h53.00781c.41504,0,.62305.2085.62305.62354v15.34082c0,.49902-.20801.74854-.62305.74854h-32.42871Z" fill="#d2b777"/>
  </g>
</svg>